HIERARCHY
ROOT Hips
{
	OFFSET 0.000000 0.000000 0.000000
	CHANNELS 6 Xposition Yposition Zposition Zrotation Yrotation Xrotation 
	JOINT Hips_Spine
	{
		OFFSET 0.000000 0.000000 0.000000
		CHANNELS 3 Zrotation Yrotation Xrotation
		JOINT Spine
		{
			OFFSET 0.005100 8.711998 -0.691000
			CHANNELS 3 Zrotation Yrotation Xrotation
			JOINT Spine1
			{
				OFFSET -0.009200 8.660301 -1.275000
				CHANNELS 3 Zrotation Yrotation Xrotation
				JOINT Spine2
				{
					OFFSET 0.006300 9.852501 -1.857000
					CHANNELS 3 Zrotation Yrotation Xrotation
					JOINT Spine2_Neck
					{
						OFFSET 0.000000 0.000000 0.000000
						CHANNELS 3 Zrotation Yrotation Xrotation
						JOINT Neck
						{
							OFFSET 0.016300 11.420799 -0.263300
							CHANNELS 3 Zrotation Yrotation Xrotation
							End Site #name: Head
							{
								OFFSET -0.019200 9.262405 2.362500
							}
						}
					}
					JOINT Spine2_LeftShoulder
					{
						OFFSET 0.000000 0.000000 0.000000
						CHANNELS 3 Zrotation Yrotation Xrotation
						JOINT LeftShoulder
						{
							OFFSET 5.616900 6.732201 -0.345700
							CHANNELS 3 Zrotation Yrotation Xrotation
							JOINT LeftArm
							{
								OFFSET 10.664888 -0.183372 -2.440700
								CHANNELS 3 Zrotation Yrotation Xrotation
								JOINT LeftForeArm
								{
									OFFSET 27.459126 0.000000 0.000000
									CHANNELS 3 Zrotation Yrotation Xrotation
									End Site #name: LeftHand
									{
										OFFSET 21.306858 0.000000 0.000000
									}
								}
							}
						}
					}
					JOINT Spine2_RightShoulder
					{
						OFFSET 0.000000 0.000000 0.000000
						CHANNELS 3 Zrotation Yrotation Xrotation
						JOINT RightShoulder
						{
							OFFSET -5.580300 6.737503 -0.344400
							CHANNELS 3 Zrotation Yrotation Xrotation
							JOINT RightArm
							{
								OFFSET -10.679335 -0.188484 -2.383900
								CHANNELS 3 Zrotation Yrotation Xrotation
								JOINT RightForeArm
								{
									OFFSET -27.503529 0.000000 0.000000
									CHANNELS 3 Zrotation Yrotation Xrotation
									End Site #name: RightHand
									{
										OFFSET -21.306808 0.000000 0.000000
									}
								}
							}
						}
					}
				}
			}
		}
	}
	JOINT Hips_LeftUpLeg
	{
		OFFSET 0.000000 0.000000 0.000000
		CHANNELS 3 Zrotation Yrotation Xrotation
		JOINT LeftUpLeg
		{
			OFFSET 6.857700 -6.739601 0.312100
			CHANNELS 3 Zrotation Yrotation Xrotation
			JOINT LeftLeg
			{
				OFFSET -0.367590 -34.731552 -4.572400
				CHANNELS 3 Zrotation Yrotation Xrotation
				End Site #name: LeftFoot
				{
					OFFSET 0.367590 -34.656704 -6.067400
				}
			}
		}
	}
	JOINT Hips_RightUpLeg
	{
		OFFSET 0.000000 0.000000 0.000000
		CHANNELS 3 Zrotation Yrotation Xrotation
		JOINT RightUpLeg
		{
			OFFSET -6.876100 -6.733299 0.301000
			CHANNELS 3 Zrotation Yrotation Xrotation
			JOINT RightLeg
			{
				OFFSET 0.347353 -34.795158 -4.515900
				CHANNELS 3 Zrotation Yrotation Xrotation
				End Site #name: RightFoot
				{
					OFFSET -0.347353 -34.589367 -6.070300
				}
			}
		}
	}
}
MOTION
Frames: 9
Frame Time: 0.041667
-0.106361 0.031796 0.274887 21.050652 -77.930847 -18.606184 -0.000000 -0.000000 -0.000000 3.070352 7.039574 6.533966 0.607894 3.886994 2.529373 0.000000 0.000000 0.000000 0.374153 3.329303 2.946337 3.090865 2.460421 3.925623 0.069154 3.661211 2.076087 -18.104723 -7.071379 1.883814 -66.247088 -34.756071 31.491483 0.174915 -79.166611 -0.255600 0.198775 3.408854 3.173376 16.052578 15.154462 2.101676 56.773646 15.335651 4.257577 -0.072895 44.553892 -0.466681 -0.000000 -0.000000 0.000000 2.116500 0.551568 -34.081929 -0.645964 -9.231115 25.356441 -0.000000 -0.000000 0.000000 -13.009891 -16.387893 -20.560963 -7.094375 -3.174001 33.230877 
-0.397738 -0.151824 0.515946 24.506627 -80.691812 -21.101817 -0.000000 -0.000000 -0.000000 3.136318 5.796319 8.646829 0.326619 2.811671 3.125189 0.000000 0.000000 0.000000 0.353067 3.015436 3.565015 3.786195 4.899375 5.440844 0.334867 3.243750 3.176595 -18.788786 -4.526426 1.879380 -64.987969 -25.041444 34.130340 0.326693 -82.122895 -0.225597 0.341147 3.295749 2.881964 19.436335 18.516362 4.671763 50.893511 19.078968 -5.062284 -0.192899 42.707271 -0.226582 -0.000000 -0.000000 0.000000 2.571040 -2.236354 -34.496380 1.416096 -10.502345 26.280225 0.000000 -0.000000 0.000000 -11.745083 -14.619636 -21.910978 -7.568251 -4.049341 32.527440 
-0.646570 -0.346330 1.026136 20.162561 -80.997546 -16.215332 -0.000000 -0.000000 -0.000000 2.478659 8.108799 8.796048 0.148856 2.779720 3.680508 0.000000 0.000000 0.000000 0.267350 3.097920 3.171865 3.781715 5.953235 5.310951 0.391545 3.053501 3.553236 -16.279049 -4.712079 1.460922 -66.248408 -23.371660 31.385593 -0.228124 -79.236344 0.360481 0.448875 3.160437 3.573012 19.074875 17.880150 4.503504 50.890630 26.736338 1.358862 0.038080 41.346801 -0.094228 -0.000000 -0.000000 0.000000 3.112083 -2.666136 -35.974190 0.819885 -10.690184 28.131898 0.000000 -0.000000 0.000000 -10.744428 -13.472538 -22.500087 -7.818800 -3.826456 32.833351 
-0.936034 -0.598313 1.794095 13.249317 -79.898213 -8.508529 -0.000000 -0.000000 -0.000000 2.047241 8.981865 8.883442 0.005849 2.861264 3.543845 0.000000 0.000000 0.000000 0.059727 3.164654 2.719806 3.048493 5.921223 4.148847 0.275252 3.027933 3.472680 -14.254468 -4.453483 1.334033 -67.351631 -22.080619 33.283201 -0.701146 -79.173967 0.771530 0.324109 3.284469 3.361687 19.000582 18.166483 4.227073 46.686483 29.134018 1.644548 0.042180 44.660238 -0.062920 -0.000000 -0.000000 0.000000 3.452034 -2.532385 -38.040907 0.053346 -10.211010 30.137855 -0.000000 -0.000000 0.000000 -9.974052 -12.969675 -22.695796 -8.669208 -4.277178 33.034687 
-1.277128 -0.798052 2.848728 7.321546 -79.063828 -1.465111 -0.000000 -0.000000 -0.000000 1.577270 9.343886 8.369787 -0.276388 3.039921 3.307936 0.000000 0.000000 0.000000 -0.233959 3.223888 2.406400 2.703448 5.413991 3.620153 0.024408 3.163838 3.215226 -13.575587 -4.171967 1.318000 -66.543671 -20.736082 33.401302 -0.869310 -80.940169 0.912160 0.046896 3.378062 3.055178 17.963980 18.309641 4.294635 43.387387 30.993149 -0.777107 -0.003070 45.650531 -0.062624 0.000000 -0.000000 0.000000 3.617453 -2.449377 -40.203013 -0.306529 -9.819198 31.797257 -0.000000 -0.000000 0.000000 -9.393940 -12.292214 -23.125712 -10.003910 -5.615577 33.104643 
-1.621311 -0.977969 4.083308 2.600692 -78.713586 4.679507 -0.000000 0.000000 -0.000000 1.108385 9.660209 8.049782 -0.588065 3.183040 3.124150 0.000000 0.000000 0.000000 -0.511057 3.298760 2.204069 2.469515 5.144464 3.535128 -0.217569 3.205645 3.020975 -13.240302 -3.715642 1.259096 -65.660219 -19.729458 32.243102 -1.069531 -83.034561 1.084736 -0.287265 3.489272 2.781308 16.087333 18.812959 4.262645 41.620043 33.904000 -5.381061 -0.079936 42.686920 -0.122602 0.000000 -0.000000 0.000000 3.712290 -2.390988 -42.530285 -0.466705 -9.437424 33.280642 -0.000000 -0.000000 0.000000 -8.906307 -11.704894 -23.940641 -11.161475 -7.044241 32.876482 
-1.917803 -1.158651 5.390503 -1.272676 -78.641929 10.206787 -0.000000 0.000000 -0.000000 0.701686 9.727061 8.109412 -0.823785 3.228124 3.057684 0.000000 0.000000 0.000000 -0.715671 3.339679 2.143435 2.324790 5.195651 3.742199 -0.448027 3.195692 2.948189 -12.936456 -3.177391 1.173123 -64.614321 -19.116355 30.981597 -1.348063 -84.446751 1.385479 -0.530055 3.529606 2.665057 14.131127 19.579296 4.057089 42.102955 35.628616 -8.119210 -0.130419 39.914184 -0.164970 0.000000 -0.000000 0.000000 3.697088 -2.302807 -44.969051 -0.577575 -9.068846 34.600901 -0.000000 -0.000000 0.000000 -8.540862 -11.443754 -25.215213 -11.686191 -7.749848 32.539871 
-2.115371 -1.321790 6.655048 -5.012374 -79.113783 15.621211 -0.000000 0.000000 -0.000000 0.359166 9.700592 8.372818 -1.006203 3.215890 3.049055 0.000000 0.000000 0.000000 -0.870105 3.341470 2.179083 2.218747 5.373157 3.972062 -0.646009 3.158006 2.946571 -12.491334 -2.926325 1.145359 -63.428062 -18.536826 29.402891 -1.679192 -85.483830 1.757474 -0.675154 3.531242 2.667571 12.468992 20.234963 3.903059 43.048143 36.485132 -10.539614 -0.125471 36.274845 -0.189433 0.000000 -0.000000 0.000000 3.594975 -2.159522 -47.270695 -0.718481 -8.737924 35.654136 -0.000000 -0.000000 0.000000 -8.305436 -11.437774 -26.648813 -11.393455 -7.728891 31.921069 
-2.160489 -1.463060 7.763557 -9.227337 -79.984621 21.443592 -0.000000 0.000000 -0.000000 0.091990 9.558280 8.640389 -1.156922 3.191260 3.080091 0.000000 0.000000 0.000000 -0.983337 3.334678 2.234139 2.086381 5.709876 4.217987 -0.773225 3.137229 3.000831 -12.328551 -2.657039 1.110215 -61.929714 -17.711367 27.157485 -1.801713 -86.240446 1.872182 -0.780888 3.523519 2.698752 10.913799 20.842088 3.789625 43.768198 36.910691 -12.367047 -0.134767 34.241161 -0.240694 0.000000 -0.000000 0.000000 3.452462 -1.932176 -49.283866 -0.866189 -8.418961 36.426359 -0.000000 -0.000000 0.000000 -8.244917 -11.549934 -28.268586 -10.914845 -7.626117 31.308915 
